<svg width="258" height="493" viewBox="0 0 258 493" fill="none" xmlns="http://www.w3.org/2000/svg">
<path d="M151 265.9H107C67.2 265.9 35 233.5 35 193.7V85.9H223V193.7C223 233.5 190.8 265.9 151 265.9Z" fill="#55F284"/>
<path d="M79.5 196.3V85.9H35V193.7C35 233.5 67.2 265.9 107 265.9H133.2C102.3 257.8 79.5 229.7 79.5 196.3Z" fill="#4B9B56"/>
<path d="M151 265.9H107C67.2 265.9 35 233.5 35 193.7V85.9H223V193.7C223 233.5 190.8 265.9 151 265.9Z" stroke="#041D31" stroke-width="6" stroke-miterlimit="10" stroke-linecap="round" stroke-linejoin="round"/>
<path d="M210.398 18.7C156.798 6.89998 101.198 6.89998 47.4984 18.7C40.1984 20.3 34.8984 26.8 34.8984 34.3V85.7C96.5984 101.5 161.198 101.5 222.898 85.7V34.3C222.998 26.9 217.798 20.4 210.398 18.7Z" fill="#55F284"/>
<path d="M210.4 18.7C208.6 18.3 206.8 17.9 205 17.5V89.9C211 88.7 217 87.3 223 85.7V34.3C223 26.9 217.8 20.4 210.4 18.7Z" fill="#70BA61"/>
<path d="M79.5 39.5C79.5 29.4 82.5 20 87.7 12.1C74.2 13.6 60.8 15.8 47.6 18.7C40.3 20.3 35 26.8 35 34.3V85.7C49.7 89.5 64.6 92.3 79.5 94.3V39.5Z" fill="#4B9B56"/>
<path d="M231 182.9H223V128.9H231C237.6 128.9 243 134.6 243 141.2V171.2C243 177.8 237.6 182.9 231 182.9Z" fill="#4B9B56"/>
<path d="M231 182.9H223V128.9H231C237.6 128.9 243 134.6 243 141.2V171.2C243 177.8 237.6 182.9 231 182.9Z" stroke="#041D31" stroke-width="6" stroke-miterlimit="10" stroke-linecap="round" stroke-linejoin="round"/>
<path d="M27 182.9H35V128.9H27C20.4 128.9 15 134.6 15 141.2V171.2C15 177.8 20.4 182.9 27 182.9Z" fill="#44934C"/>
<path d="M27 182.9H35V128.9H27C20.4 128.9 15 134.6 15 141.2V171.2C15 177.8 20.4 182.9 27 182.9Z" stroke="#041D31" stroke-width="6" stroke-miterlimit="10" stroke-linecap="round" stroke-linejoin="round"/>
<path d="M122.699 236.2C124.099 224.9 134.399 216.8 145.699 218.2C148.499 218.5 151.199 219.5 153.499 220.8" stroke="#041D31" stroke-width="6" stroke-miterlimit="10" stroke-linecap="round" stroke-linejoin="round"/>
<path d="M72 388.2V478.2H126V430.9C126 428.1 128.3 425.9 131 425.9C133.8 425.9 136 428.1 136 430.9V478.2H190V388.2H72Z" fill="#2B323A"/>
<path opacity="0.8" d="M145.5 478.2H136V425.9H137.4C141.9 425.9 145.5 429.5 145.5 434V478.2Z" fill="#252C33"/>
<g opacity="0.8">
<path d="M84.2 388.2H72V478.2H84.2V388.2Z" fill="#252C33"/>
</g>
<path d="M207.801 426.3C218.018 426.3 226.301 418.017 226.301 407.8C226.301 397.583 218.018 389.3 207.801 389.3C197.584 389.3 189.301 397.583 189.301 407.8C189.301 418.017 197.584 426.3 207.801 426.3Z" fill="#55F284"/>
<path d="M206.3 409.4C205.6 401.7 209.8 394.7 216.2 391.4C213.2 389.8 209.7 389.1 206.1 389.4C195.9 390.3 188.4 399.3 189.3 409.5C190.2 419.7 199.2 427.2 209.4 426.3C211.9 426.1 214.2 425.4 216.3 424.3C210.8 421.4 206.9 416 206.3 409.4Z" fill="#4B9B56"/>
<path d="M92.3984 190.9C110.072 190.9 124.398 176.573 124.398 158.9C124.398 141.227 110.072 126.9 92.3984 126.9C74.7253 126.9 60.3984 141.227 60.3984 158.9C60.3984 176.573 74.7253 190.9 92.3984 190.9Z" fill="white"/>
<path d="M92.3984 190.9C110.072 190.9 124.398 176.573 124.398 158.9C124.398 141.227 110.072 126.9 92.3984 126.9C74.7253 126.9 60.3984 141.227 60.3984 158.9C60.3984 176.573 74.7253 190.9 92.3984 190.9Z" stroke="#041D31" stroke-width="6" stroke-miterlimit="10" stroke-linecap="round" stroke-linejoin="round"/>
<path d="M108.699 173.9C116.431 173.9 122.699 167.632 122.699 159.9C122.699 152.168 116.431 145.9 108.699 145.9C100.967 145.9 94.6992 152.168 94.6992 159.9C94.6992 167.632 100.967 173.9 108.699 173.9Z" fill="#041D31"/>
<path d="M113.699 164.9C116.461 164.9 118.699 162.661 118.699 159.9C118.699 157.139 116.461 154.9 113.699 154.9C110.938 154.9 108.699 157.139 108.699 159.9C108.699 162.661 110.938 164.9 113.699 164.9Z" fill="white"/>
<path d="M126 478.2H72V486.2C72 489.5 74.7 492.2 78 492.2H120C123.3 492.2 126 489.5 126 486.2V478.2Z" fill="#171725"/>
<path d="M84.2 486.2V478.2H72V486.2C72 489.5 74.7 492.2 78 492.2H90.2C86.9 492.2 84.2 489.5 84.2 486.2Z" fill="#171725"/>
<path d="M142 492.2H184C187.3 492.2 190 489.5 190 486.2V478.2H136V486.2C136 489.5 138.7 492.2 142 492.2Z" fill="#171725"/>
<path d="M145.5 486.2V478.2H136V486.2C136 489.5 138.7 492.2 142 492.2H151.5C148.2 492.2 145.5 489.5 145.5 486.2Z" fill="#171725"/>
<path d="M54.3992 428.1C64.7269 428.1 73.0992 419.728 73.0992 409.4C73.0992 399.072 64.7269 390.7 54.3992 390.7C44.0715 390.7 35.6992 399.072 35.6992 409.4C35.6992 419.728 44.0715 428.1 54.3992 428.1Z" fill="#55F284"/>
<path d="M50.2013 407.8C50.8013 400.6 55.4013 394.8 61.6013 392.2C59.9013 391.5 58.0012 391 56.0012 390.8C45.7012 389.9 36.6013 397.5 35.7013 407.8C34.8013 418.1 42.4013 427.2 52.7013 428.1C55.8013 428.4 58.9013 427.8 61.6013 426.7C54.3013 423.6 49.5013 416.1 50.2013 407.8Z" fill="#4B9B56"/>
<path d="M226.402 407.4L218.802 320.5C217.402 304.9 205.002 292.9 190.002 291C190.002 291 190.002 291 190.002 290.9C150.802 286 111.202 286 72.0016 290.9C72.0016 290.9 72.0016 290.9 72.0016 291C56.9016 292.8 44.6016 305 43.2016 320.7L35.6016 407.6L71.5016 410.7L72.5016 399C111.302 403.9 150.602 403.9 189.402 399L190.402 410.6L226.402 407.4Z" fill="#171725"/>
<path opacity="0.83" d="M218.802 319.6C217.402 303.9 205.002 291.9 190.002 290C190.002 290 190.002 290 190.002 289.9C150.802 285 111.202 285 72.0016 289.9C72.0016 289.9 72.0016 289.9 72.0016 290C56.9016 291.8 44.6016 304 43.2016 319.7L35.6016 406.6L36.6016 406.7L43.2016 330.7C44.6016 315 56.9016 302.8 72.0016 301C72.0016 301 72.0016 301 72.0016 300.9C83.2016 299.5 94.4016 298.5 105.702 297.9C107.702 305 114.202 310.2 121.902 310.2H140.102C147.802 310.2 154.302 305 156.302 297.9C167.502 298.5 178.802 299.5 190.002 300.9C190.002 300.9 190.002 300.9 190.002 301C205.002 302.9 217.402 314.9 218.802 330.6L225.402 406.6L226.402 406.5L218.802 319.6Z" fill="#171725"/>
<path d="M212.2 10.9001C184.9 4.90005 157 1.80005 129 1.80005C101.1 1.80005 73.1 4.80006 45.8 10.9001C34.9 13.3001 27 23.2 27 34.3V52.8L33 53.8C40.4 55 47.9 56.0001 55.3 57.0001L61.2 37.7H69L70.1 58.6001C76.9 59.3001 83.8 59.8 90.7 60.2L93 37.7L96.1 60.6001C104.8 61.1001 113.5 61.4001 122.2 61.4001L126 39.7L129 61.5001L143.5 58.0001L149.7 28.2L167.3 60.2C174.6 59.7 181.9 59.2001 189.2 58.4001V35.1001L194.4 34.1001L203 56.8C207.4 56.3 211.9 55.7001 216.3 55.0001C215.8 44.5001 215 24.9001 216.6 28.0001C218.2 31.1001 223.6 45.7001 226.4 53.4001L230.9 52.7V34.2C231 23.2 223.1 13.3001 212.2 10.9001Z" fill="#041D31"/>
<path d="M212.2 10.9001C184.9 4.90005 157 1.80005 129 1.80005C101.1 1.80005 73.1 4.80006 45.8 10.9001C34.9 13.3001 27 23.2 27 34.3V52.8L33 53.8C40.4 55 47.9 56.0001 55.3 57.0001L61.2 37.7H69L70.1 58.6001C76.9 59.3001 83.8 59.8 90.7 60.2L93 37.7L96.1 60.6001C104.8 61.1001 113.5 61.4001 122.2 61.4001L126 39.7L129 61.5001L143.5 58.0001L149.7 28.2L167.3 60.2C174.6 59.7 181.9 59.2001 189.2 58.4001V35.1001L194.4 34.1001L203 56.8C207.4 56.3 211.9 55.7001 216.3 55.0001C215.8 44.5001 215 24.9001 216.6 28.0001C218.2 31.1001 223.6 45.7001 226.4 53.4001L230.9 52.7V34.2C231 23.2 223.1 13.3001 212.2 10.9001Z" stroke="#041D31" stroke-width="2" stroke-miterlimit="10" stroke-linecap="round" stroke-linejoin="round"/>
<path d="M210.398 20.5C156.798 8.90005 101.198 8.90005 47.4984 20.5C40.1984 22.1 34.8984 28.4 34.8984 35.8V86C96.5984 101.5 161.198 101.5 222.898 86V35.8C222.998 28.5 217.798 22.1 210.398 20.5Z" stroke="#041D31" stroke-width="6" stroke-miterlimit="10" stroke-linecap="round" stroke-linejoin="round"/>
<path d="M65.4992 107.9H64.8992C60.6992 107.9 57.1992 104.5 57.1992 100.2V83.6C57.1992 79.4 60.5992 75.9 64.8992 75.9H65.4992C69.6992 75.9 73.1992 79.3 73.1992 83.6V100.2C73.1992 104.5 69.6992 107.9 65.4992 107.9Z" fill="#BBBE93"/>
<path d="M65.4992 107.9H64.8992C60.6992 107.9 57.1992 104.5 57.1992 100.2V83.6C57.1992 79.4 60.5992 75.9 64.8992 75.9H65.4992C69.6992 75.9 73.1992 79.3 73.1992 83.6V100.2C73.1992 104.5 69.6992 107.9 65.4992 107.9Z" stroke="#041D31" stroke-width="6" stroke-miterlimit="10" stroke-linecap="round" stroke-linejoin="round"/>
<path d="M104.999 111.1H104.399C100.199 111.1 96.6992 107.7 96.6992 103.4V86.8C96.6992 82.6 100.099 79.1 104.399 79.1H104.999C109.199 79.1 112.699 82.5 112.699 86.8V103.4C112.699 107.7 109.199 111.1 104.999 111.1Z" fill="#BBBE93"/>
<path d="M104.999 111.1H104.399C100.199 111.1 96.6992 107.7 96.6992 103.4V86.8C96.6992 82.6 100.099 79.1 104.399 79.1H104.999C109.199 79.1 112.699 82.5 112.699 86.8V103.4C112.699 107.7 109.199 111.1 104.999 111.1Z" stroke="#041D31" stroke-width="6" stroke-miterlimit="10" stroke-linecap="round" stroke-linejoin="round"/>
<path d="M145.902 109.4H145.302C141.102 109.4 137.602 106 137.602 101.7V85.1C137.602 80.9 141.002 77.4 145.302 77.4H145.902C150.102 77.4 153.602 80.8 153.602 85.1V101.7C153.602 106 150.102 109.4 145.902 109.4Z" fill="#BBBE93"/>
<path d="M145.902 109.4H145.302C141.102 109.4 137.602 106 137.602 101.7V85.1C137.602 80.9 141.002 77.4 145.302 77.4H145.902C150.102 77.4 153.602 80.8 153.602 85.1V101.7C153.602 106 150.102 109.4 145.902 109.4Z" stroke="#041D31" stroke-width="6" stroke-miterlimit="10" stroke-linecap="round" stroke-linejoin="round"/>
<path d="M188.402 109.4H187.802C183.602 109.4 180.102 106 180.102 101.7V85.1C180.102 80.9 183.502 77.4 187.802 77.4H188.402C192.602 77.4 196.102 80.8 196.102 85.1V101.7C196.102 106 192.602 109.4 188.402 109.4Z" fill="#BBBE93"/>
<path d="M188.402 109.4H187.802C183.602 109.4 180.102 106 180.102 101.7V85.1C180.102 80.9 183.502 77.4 187.802 77.4H188.402C192.602 77.4 196.102 80.8 196.102 85.1V101.7C196.102 106 192.602 109.4 188.402 109.4Z" stroke="#041D31" stroke-width="6" stroke-miterlimit="10" stroke-linecap="round" stroke-linejoin="round"/>
<path d="M239 79.9H223V91.9H239V79.9Z" fill="#8A8D91"/>
<path d="M239 79.9H223V91.9H239V79.9Z" stroke="#041D31" stroke-width="6" stroke-miterlimit="10" stroke-linecap="round" stroke-linejoin="round"/>
<path d="M248.6 101.9H245.4C241.9 101.9 239 99 239 95.5V76.3C239 72.8 241.9 69.9 245.4 69.9H248.6C252.1 69.9 255 72.8 255 76.3V95.5C255 99 252.1 101.9 248.6 101.9Z" fill="#9DA0A5"/>
<path d="M248.6 101.9H245.4C241.9 101.9 239 99 239 95.5V76.3C239 72.8 241.9 69.9 245.4 69.9H248.6C252.1 69.9 255 72.8 255 76.3V95.5C255 99 252.1 101.9 248.6 101.9Z" fill="#9DA0A5"/>
<path d="M251.4 79.1H242.6C240.6 79.1 239 77.5 239 75.5V73.5C239 71.5 240.6 69.9 242.6 69.9H251.4C253.4 69.9 255 71.5 255 73.5V75.5C255 77.5 253.4 79.1 251.4 79.1Z" fill="#ADB3BC"/>
<path d="M248.6 101.9H245.4C241.9 101.9 239 99 239 95.5V76.3C239 72.8 241.9 69.9 245.4 69.9H248.6C252.1 69.9 255 72.8 255 76.3V95.5C255 99 252.1 101.9 248.6 101.9Z" stroke="#041D31" stroke-width="6" stroke-miterlimit="10" stroke-linecap="round" stroke-linejoin="round"/>
<path d="M19 91.9L35 91.9L35 79.9L19 79.9L19 91.9Z" fill="#686F77"/>
<path d="M19 91.9L35 91.9L35 79.9L19 79.9L19 91.9Z" stroke="#041D31" stroke-width="6" stroke-miterlimit="10" stroke-linecap="round" stroke-linejoin="round"/>
<path d="M9.39999 101.9H12.6C16.1 101.9 19 99 19 95.5V76.3C19 72.8 16.1 69.9 12.6 69.9H9.39999C5.89999 69.9 3 72.8 3 76.3V95.5C3 99 5.89999 101.9 9.39999 101.9Z" fill="#727984"/>
<path d="M9.39999 101.9H12.6C16.1 101.9 19 99 19 95.5V76.3C19 72.8 16.1 69.9 12.6 69.9H9.39999C5.89999 69.9 3 72.8 3 76.3V95.5C3 99 5.89999 101.9 9.39999 101.9Z" fill="#727984"/>
<path d="M7 79.1H15C17.2 79.1 19 77.3 19 75.1V73.9C19 71.7 17.2 69.9 15 69.9H7C4.8 69.9 3 71.7 3 73.9V75.1C3 77.4 4.8 79.1 7 79.1Z" fill="#ADB3BC"/>
<path d="M9.39999 101.9H12.6C16.1 101.9 19 99 19 95.5V76.3C19 72.8 16.1 69.9 12.6 69.9H9.39999C5.89999 69.9 3 72.8 3 76.3V95.5C3 99 5.89999 101.9 9.39999 101.9Z" stroke="#041D31" stroke-width="6" stroke-miterlimit="10" stroke-linecap="round" stroke-linejoin="round"/>
<path d="M136.198 301.9H125.698C117.598 301.9 110.898 295.3 110.898 287.1V265.9H150.898V287.1C150.998 295.3 144.398 301.9 136.198 301.9Z" fill="#4B9B56"/>
<path d="M123.5 287.1V265.9H111V287.1C111 295.2 117.6 301.9 125.8 301.9H136.3C136.6 301.9 137 301.9 137.3 301.8C129.6 301.3 123.5 295 123.5 287.1Z" fill="#44934C"/>
<path d="M136.198 301.9H125.698C117.598 301.9 110.898 295.3 110.898 287.1V265.9H150.898V287.1C150.998 295.3 144.398 301.9 136.198 301.9Z" stroke="#041D31" stroke-width="6" stroke-miterlimit="10" stroke-linecap="round" stroke-linejoin="round"/>
<path opacity="0.65" d="M160 364.1L149 387.1" stroke="#55F284" stroke-width="3" stroke-miterlimit="10" stroke-linecap="round" stroke-linejoin="round"/>
<path opacity="0.65" d="M163 373.4L157 390.6" stroke="#55F284" stroke-width="3" stroke-miterlimit="10" stroke-linecap="round" stroke-linejoin="round"/>
<path d="M163.398 182.9C178.31 182.9 190.398 170.812 190.398 155.9C190.398 140.988 178.31 128.9 163.398 128.9C148.487 128.9 136.398 140.988 136.398 155.9C136.398 170.812 148.487 182.9 163.398 182.9Z" fill="white"/>
<path d="M163.398 182.9C178.31 182.9 190.398 170.812 190.398 155.9C190.398 140.988 178.31 128.9 163.398 128.9C148.487 128.9 136.398 140.988 136.398 155.9C136.398 170.812 148.487 182.9 163.398 182.9Z" stroke="#041D31" stroke-width="6" stroke-miterlimit="10" stroke-linecap="round" stroke-linejoin="round"/>
<path d="M149.5 170.9C155.575 170.9 160.5 165.975 160.5 159.9C160.5 153.825 155.575 148.9 149.5 148.9C143.425 148.9 138.5 153.825 138.5 159.9C138.5 165.975 143.425 170.9 149.5 170.9Z" fill="#041D31"/>
<path d="M146 162.9C147.933 162.9 149.5 161.333 149.5 159.4C149.5 157.467 147.933 155.9 146 155.9C144.067 155.9 142.5 157.467 142.5 159.4C142.5 161.333 144.067 162.9 146 162.9Z" fill="white"/>
</svg>
